# Made in Blockbench 4.2.3
mtllib steam_boiler.mtl

o controller
v 1 1 0.0625
v 1 1 0
v 1 0 0.0625
v 1 0 0
v 0 1 0
v 0 1 0.0625
v 0 0 0
v 0 0 0.0625
vt 0 1
vt 1 1
vt 1 0
vt 0 0
vt 0 1
vt 0.00390625 1
vt 0.00390625 0.9375
vt 0 0.9375
vt 0 1
vt 0.0625 1
vt 0.0625 0.9375
vt 0 0.9375
vt 0 1
vt 0.00390625 1
vt 0.00390625 0.9375
vt 0 0.9375
vt 0 1
vt 0.0625 1
vt 0.0625 0.99609375
vt 0 0.99609375
vt 0 1
vt 0.0625 1
vt 0.0625 0.99609375
vt 0 0.99609375
vn 0 0 -1
vn 1 0 0
vn 0 0 1
vn -1 0 0
vn 0 1 0
vn 0 -1 0
usemtl m_2
f 4/4/1 7/3/1 5/2/1 2/1/1
usemtl none
f 3/8/2 4/7/2 2/6/2 1/5/2
f 8/12/3 3/11/3 1/10/3 6/9/3
f 7/16/4 8/15/4 6/14/4 5/13/4
f 6/20/5 1/19/5 2/18/5 5/17/5
f 7/24/6 4/23/6 3/22/6 8/21/6
o cube
v 0 1 0.0625
v 0 1 0
v 0 0 0.0625
v 0 0 0
v -0.375 1 0
v -0.375 1 0.0625
v -0.375 0 0
v -0.375 0 0.0625
vt 0.0859375 0.5
vt 0.109375 0.5
vt 0.109375 0.4375
vt 0.0859375 0.4375
vt 0 1
vt 0.00390625 1
vt 0.00390625 0.9375
vt 0 0.9375
vt 0 1
vt 0.0234375 1
vt 0.0234375 0.9375
vt 0 0.9375
vt 0 1
vt 0.00390625 1
vt 0.00390625 0.9375
vt 0 0.9375
vt 0 1
vt 0.0234375 1
vt 0.0234375 0.99609375
vt 0 0.99609375
vt 0 1
vt 0.0234375 1
vt 0.0234375 0.99609375
vt 0 0.99609375
vn 0 0 -1
vn 1 0 0
vn 0 0 1
vn -1 0 0
vn 0 1 0
vn 0 -1 0
usemtl m_1
f 12/28/7 15/27/7 13/26/7 10/25/7
usemtl none
f 11/32/8 12/31/8 10/30/8 9/29/8
f 16/36/9 11/35/9 9/34/9 14/33/9
f 15/40/10 16/39/10 14/38/10 13/37/10
f 14/44/11 9/43/11 10/42/11 13/41/11
f 15/48/12 12/47/12 11/46/12 16/45/12
o cube
v 1.375 1 0.0625
v 1.375 1 0
v 1.375 0 0.0625
v 1.375 0 0
v 1 1 0
v 1 1 0.0625
v 1 0 0
v 1 0 0.0625
vt 0 0.5
vt 0.0234375 0.5
vt 0.0234375 0.4375
vt 0 0.4375
vt 0 1
vt 0.00390625 1
vt 0.00390625 0.9375
vt 0 0.9375
vt 0 1
vt 0.0234375 1
vt 0.0234375 0.9375
vt 0 0.9375
vt 0 1
vt 0.00390625 1
vt 0.00390625 0.9375
vt 0 0.9375
vt 0 1
vt 0.0234375 1
vt 0.0234375 0.99609375
vt 0 0.99609375
vt 0 1
vt 0.0234375 1
vt 0.0234375 0.99609375
vt 0 0.99609375
vn 0 0 -1
vn 1 0 0
vn 0 0 1
vn -1 0 0
vn 0 1 0
vn 0 -1 0
usemtl m_1
f 20/52/13 23/51/13 21/50/13 18/49/13
usemtl none
f 19/56/14 20/55/14 18/54/14 17/53/14
f 24/60/15 19/59/15 17/58/15 22/57/15
f 23/64/16 24/63/16 22/62/16 21/61/16
f 22/68/17 17/67/17 18/66/17 21/65/17
f 23/72/18 20/71/18 19/70/18 24/69/18
o cube
v 1.375 4 0.0625
v 1.375 4 0
v 1.375 1 0.0625
v 1.375 1 0
v -0.375 4 0
v -0.375 4 0.0625
v -0.375 1 0
v -0.375 1 0.0625
vt 0 0.6875
vt 0.109375 0.6875
vt 0.109375 0.5
vt 0 0.5
vt 0 1
vt 0.00390625 1
vt 0.00390625 0.8125
vt 0 0.8125
vt 0 1
vt 0.109375 1
vt 0.109375 0.8125
vt 0 0.8125
vt 0 1
vt 0.00390625 1
vt 0.00390625 0.8125
vt 0 0.8125
vt 0.484375 0.81640625
vt 0.59375 0.81640625
vt 0.59375 0.8125
vt 0.484375 0.8125
vt 0 1
vt 0.109375 1
vt 0.109375 0.99609375
vt 0 0.99609375
vn 0 0 -1
vn 1 0 0
vn 0 0 1
vn -1 0 0
vn 0 1 0
vn 0 -1 0
usemtl m_1
f 28/76/19 31/75/19 29/74/19 26/73/19
f 27/80/20 28/79/20 26/78/20 25/77/20
f 32/84/21 27/83/21 25/82/21 30/81/21
f 31/88/22 32/87/22 30/86/22 29/85/22
f 30/92/23 25/91/23 26/90/23 29/89/23
f 31/96/24 28/95/24 27/94/24 32/93/24
o cube
v 1.375 0 0.0625
v 1.375 0 0
v 1.375 -1 0.0625
v 1.375 -1 0
v -0.375 0 0
v -0.375 0 0.0625
v -0.375 -1 0
v -0.375 -1 0.0625
vt 0 0.4375
vt 0.109375 0.4375
vt 0.109375 0.375
vt 0 0.375
vt 0 1
vt 0.00390625 1
vt 0.00390625 0.9375
vt 0 0.9375
vt 0 1
vt 0.109375 1
vt 0.109375 0.9375
vt 0 0.9375
vt 0 1
vt 0.00390625 1
vt 0.00390625 0.9375
vt 0 0.9375
vt 0 1
vt 0.109375 1
vt 0.109375 0.99609375
vt 0 0.99609375
vt 0.546875 0.62890625
vt 0.65625 0.62890625
vt 0.65625 0.625
vt 0.546875 0.625
vn 0 0 -1
vn 1 0 0
vn 0 0 1
vn -1 0 0
vn 0 1 0
vn 0 -1 0
usemtl m_1
f 36/100/25 39/99/25 37/98/25 34/97/25
f 35/104/26 36/103/26 34/102/26 33/101/26
f 40/108/27 35/107/27 33/106/27 38/105/27
f 39/112/28 40/111/28 38/110/28 37/109/28
f 38/116/29 33/115/29 34/114/29 37/113/29
f 39/120/30 36/119/30 35/118/30 40/117/30
o cube
v 2 4 2.375
v 2 4 0.625
v 2 -1 2.375
v 2 -1 0.625
v 1.375 4 0.625
v 1.375 4 2.375
v 1.375 -1 0.625
v 1.375 -1 2.375
vt 0 1
vt 0.0390625 1
vt 0.0390625 0.6875
vt 0 0.6875
vt 0.21875 0.6875
vt 0.328125 0.6875
vt 0.328125 0.375
vt 0.21875 0.375
vt 0 1
vt 0.0390625 1
vt 0.0390625 0.6875
vt 0 0.6875
vt 0.00390625 1
vt 0.11328125 1
vt 0.11328125 0.6875
vt 0.00390625 0.6875
vt 0.5234375 0.703125
vt 0.484375 0.703125
vt 0.484375 0.8125
vt 0.5234375 0.8125
vt 0.6328125 1
vt 0.59375 1
vt 0.59375 0.890625
vt 0.6328125 0.890625
vn 0 0 -1
vn 1 0 0
vn 0 0 1
vn -1 0 0
vn 0 1 0
vn 0 -1 0
usemtl m_1
f 44/124/31 47/123/31 45/122/31 42/121/31
f 43/128/32 44/127/32 42/126/32 41/125/32
f 48/132/33 43/131/33 41/130/33 46/129/33
f 47/136/34 48/135/34 46/134/34 45/133/34
f 46/140/35 41/139/35 42/138/35 45/137/35
f 47/144/36 44/143/36 43/142/36 48/141/36
o cube
v -0.375 4 2.375
v -0.375 4 0.625
v -0.375 -1 2.375
v -0.375 -1 0.625
v -1 4 0.625
v -1 4 2.375
v -1 -1 0.625
v -1 -1 2.375
vt 0 1
vt 0.0390625 1
vt 0.0390625 0.6875
vt 0 0.6875
vt 0 1
vt 0.109375 1
vt 0.109375 0.6875
vt 0 0.6875
vt 0 1
vt 0.0390625 1
vt 0.0390625 0.6875
vt 0 0.6875
vt 0.4375 0.6875
vt 0.546875 0.6875
vt 0.546875 0.375
vt 0.4375 0.375
vt 0.7890625 0.265625
vt 0.75 0.265625
vt 0.75 0.375
vt 0.7890625 0.375
vt 0.7890625 0.265625
vt 0.75 0.265625
vt 0.75 0.15625
vt 0.7890625 0.15625
vn 0 0 -1
vn 1 0 0
vn 0 0 1
vn -1 0 0
vn 0 1 0
vn 0 -1 0
usemtl m_1
f 52/148/37 55/147/37 53/146/37 50/145/37
f 51/152/38 52/151/38 50/150/38 49/149/38
f 56/156/39 51/155/39 49/154/39 54/153/39
f 55/160/40 56/159/40 54/158/40 53/157/40
f 54/164/41 49/163/41 50/162/41 53/161/41
f 55/168/42 52/167/42 51/166/42 56/165/42
o cube
v 1.375 4 3
v 1.375 4 0.0625
v 1.375 -1 3
v 1.375 -1 0.0625
v -0.375 4 0.0625
v -0.375 4 3
v -0.375 -1 0.0625
v -0.375 -1 3
vt 0 1
vt 0.109375 1
vt 0.109375 0.6875
vt 0 0.6875
vt 0 1
vt 0.1875 1
vt 0.1875 0.6875
vt 0 0.6875
vt 0.109375 0.6875
vt 0.21875 0.6875
vt 0.21875 0.375
vt 0.109375 0.375
vt 0 1
vt 0.1875 1
vt 0.1875 0.6875
vt 0 0.6875
vt 0.59375 0.81640625
vt 0.484375 0.81640625
vt 0.484375 1
vt 0.59375 1
vt 0.65625 0.8125
vt 0.546875 0.8125
vt 0.546875 0.62890625
vt 0.65625 0.62890625
vn 0 0 -1
vn 1 0 0
vn 0 0 1
vn -1 0 0
vn 0 1 0
vn 0 -1 0
usemtl m_1
f 60/172/43 63/171/43 61/170/43 58/169/43
f 59/176/44 60/175/44 58/174/44 57/173/44
f 64/180/45 59/179/45 57/178/45 62/177/45
f 63/184/46 64/183/46 62/182/46 61/181/46
f 62/188/47 57/187/47 58/186/47 61/185/47
f 63/192/48 60/191/48 59/190/48 64/189/48
o cylinder
v -0.375 -1 2.375
v -0.375 4 2.375
v -0.375 -1 3
v -0.375 4 3
v 0.25 -1 2.375
v 0.25 4 2.375
v -0.3749999999999999 -1 1.75
v -0.3749999999999999 4 1.75
v -1 -1 2.375
v -1 4 2.375
vt 0.828125 0.8046875
vt 0.7890625 0.84375
vt 0.7890625 0.8046875
vt 0 0.6875
vt 0.0546875 0.6875
vt 0.0546875 1
vt 0 1
vt 0.7890625 0.6875
vt 0.828125 0.7265625
vt 0.7890625 0.7265625
vt 0.7890625 0.765625
vt 0.828125 0.8046875
vt 0.7890625 0.8046875
vt 0 0.6875
vt 0.0546875 0.6875
vt 0.0546875 1
vt 0 1
vt 0.828125 0.7265625
vt 0.7890625 0.765625
vt 0.7890625 0.7265625
vt 0.75 0.8046875
vt 0.7890625 0.765625
vt 0.7890625 0.8046875
vt 0 0.6875
vt 0.0546875 0.6875
vt 0.0546875 1
vt 0 1
vt 0.7890625 0.765625
vt 0.75 0.7265625
vt 0.7890625 0.7265625
vt 0.7890625 0.84375
vt 0.75 0.8046875
vt 0.7890625 0.8046875
vt 0.1640625 0.0625
vt 0.21875 0.0625
vt 0.21875 0.375
vt 0.1640625 0.375
vt 0.75 0.7265625
vt 0.7890625 0.6875
vt 0.7890625 0.7265625
vn 0 -1 0
vn 0.7071067811865476 0 0.7071067811865476
vn 0 1 0
vn 0 -1 0
vn 0.7071067811865476 0 -0.7071067811865475
vn 0 1 0
vn 0 -1 0
vn -0.7071067811865475 0 -0.7071067811865477
vn 0 1 0
vn 0 -1 0
vn -0.7071067811865476 0 0.7071067811865475
vn 0 1 0
usemtl m_1
f 69/193/49 67/194/49 65/195/49
f 67/196/50 69/197/50 70/198/50 68/199/50
f 68/200/51 70/201/51 66/202/51
f 71/203/52 69/204/52 65/205/52
f 69/206/53 71/207/53 72/208/53 70/209/53
f 70/210/54 72/211/54 66/212/54
f 73/213/55 71/214/55 65/215/55
f 71/216/56 73/217/56 74/218/56 72/219/56
f 72/220/57 74/221/57 66/222/57
f 67/223/58 73/224/58 65/225/58
f 73/226/59 67/227/59 68/228/59 74/229/59
f 74/230/60 68/231/60 66/232/60
o cylinder
v 1.375 -1 0.625
v 1.375 4 0.625
v 1.375 -1 1.25
v 1.375 4 1.25
v 2 -1 0.625
v 2 4 0.625
v 1.375 -1 0
v 1.375 4 0
v 0.75 -1 0.625
v 0.75 4 0.625
vt 0.828125 0.6484375
vt 0.7890625 0.6875
vt 0.7890625 0.6484375
vt 0 0.6875
vt 0.0546875 0.6875
vt 0.0546875 1
vt 0 1
vt 0.7890625 0.53125
vt 0.828125 0.5703125
vt 0.7890625 0.5703125
vt 0.7890625 0.609375
vt 0.828125 0.6484375
vt 0.7890625 0.6484375
vt 0.328125 0.0625
vt 0.3828125 0.0625
vt 0.3828125 0.375
vt 0.328125 0.375
vt 0.828125 0.5703125
vt 0.7890625 0.609375
vt 0.7890625 0.5703125
vt 0.75 0.6484375
vt 0.7890625 0.609375
vt 0.7890625 0.6484375
vt 0 0.6875
vt 0.0546875 0.6875
vt 0.0546875 1
vt 0 1
vt 0.7890625 0.609375
vt 0.75 0.5703125
vt 0.7890625 0.5703125
vt 0.7890625 0.6875
vt 0.75 0.6484375
vt 0.7890625 0.6484375
vt 0 0.6875
vt 0.0546875 0.6875
vt 0.0546875 1
vt 0 1
vt 0.75 0.5703125
vt 0.7890625 0.53125
vt 0.7890625 0.5703125
vn 0 -1 0
vn 0.7071067811865476 0 0.7071067811865476
vn 0 1 0
vn 0 -1 0
vn 0.7071067811865476 0 -0.7071067811865475
vn 0 1 0
vn 0 -1 0
vn -0.7071067811865475 0 -0.7071067811865476
vn 0 1 0
vn 0 -1 0
vn -0.7071067811865476 0 0.7071067811865476
vn 0 1 0
usemtl m_1
f 79/233/61 77/234/61 75/235/61
f 77/236/62 79/237/62 80/238/62 78/239/62
f 78/240/63 80/241/63 76/242/63
f 81/243/64 79/244/64 75/245/64
f 79/246/65 81/247/65 82/248/65 80/249/65
f 80/250/66 82/251/66 76/252/66
f 83/253/67 81/254/67 75/255/67
f 81/256/68 83/257/68 84/258/68 82/259/68
f 82/260/69 84/261/69 76/262/69
f 77/263/70 83/264/70 75/265/70
f 83/266/71 77/267/71 78/268/71 84/269/71
f 84/270/72 78/271/72 76/272/72
o cylinder
v 1.375 -1 2.375
v 1.375 4 2.375
v 1.375 -1 3
v 1.375 4 3
v 2 -1 2.375
v 2 4 2.375
v 1.375 -1 1.75
v 1.375 4 1.75
v 0.75 -1 2.375
v 0.75 4 2.375
vt 0.828125 0.9609375
vt 0.7890625 1
vt 0.7890625 0.9609375
vt 0 0.0625
vt 0.0546875 0.0625
vt 0.0546875 0.375
vt 0 0.375
vt 0.7890625 0.84375
vt 0.828125 0.8828125
vt 0.7890625 0.8828125
vt 0.7890625 0.921875
vt 0.828125 0.9609375
vt 0.7890625 0.9609375
vt 0 0.6875
vt 0.0546875 0.6875
vt 0.0546875 1
vt 0 1
vt 0.828125 0.8828125
vt 0.7890625 0.921875
vt 0.7890625 0.8828125
vt 0.75 0.9609375
vt 0.7890625 0.921875
vt 0.7890625 0.9609375
vt 0 0.6875
vt 0.0546875 0.6875
vt 0.0546875 1
vt 0 1
vt 0.7890625 0.921875
vt 0.75 0.8828125
vt 0.7890625 0.8828125
vt 0.7890625 1
vt 0.75 0.9609375
vt 0.7890625 0.9609375
vt 0.0546875 0.6875
vt 0.109375 0.6875
vt 0.109375 1
vt 0.0546875 1
vt 0.75 0.8828125
vt 0.7890625 0.84375
vt 0.7890625 0.8828125
vn 0 -1 0
vn 0.7071067811865476 0 0.7071067811865476
vn 0 1 0
vn 0 -1 0
vn 0.7071067811865476 0 -0.7071067811865476
vn 0 1 0
vn 0 -1 0
vn -0.7071067811865475 0 -0.7071067811865476
vn 0 1 0
vn 0 -1 0
vn -0.7071067811865476 0 0.7071067811865475
vn 0 1 0
usemtl m_1
f 89/273/73 87/274/73 85/275/73
f 87/276/74 89/277/74 90/278/74 88/279/74
f 88/280/75 90/281/75 86/282/75
f 91/283/76 89/284/76 85/285/76
f 89/286/77 91/287/77 92/288/77 90/289/77
f 90/290/78 92/291/78 86/292/78
f 93/293/79 91/294/79 85/295/79
f 91/296/80 93/297/80 94/298/80 92/299/80
f 92/300/81 94/301/81 86/302/81
f 87/303/82 93/304/82 85/305/82
f 93/306/83 87/307/83 88/308/83 94/309/83
f 94/310/84 88/311/84 86/312/84
o cylinder
v -0.375 -1 0.625
v -0.375 4 0.625
v -0.375 -1 1.25
v -0.375 4 1.25
v 0.25 -1 0.625
v 0.25 4 0.625
v -0.3749999999999999 -1 0
v -0.3749999999999999 4 0
v -1 -1 0.6249999999999999
v -1 4 0.6249999999999999
vt 0.828125 0.4921875
vt 0.7890625 0.53125
vt 0.7890625 0.4921875
vt 0 0.6875
vt 0.0546875 0.6875
vt 0.0546875 1
vt 0 1
vt 0.7890625 0.375
vt 0.828125 0.4140625
vt 0.7890625 0.4140625
vt 0.7890625 0.453125
vt 0.828125 0.4921875
vt 0.7890625 0.4921875
vt 0 0.6875
vt 0.0546875 0.6875
vt 0.0546875 1
vt 0 1
vt 0.828125 0.4140625
vt 0.7890625 0.453125
vt 0.7890625 0.4140625
vt 0.75 0.4921875
vt 0.7890625 0.453125
vt 0.7890625 0.4921875
vt 0.546875 0
vt 0.6015625 0
vt 0.6015625 0.3125
vt 0.546875 0.3125
vt 0.7890625 0.453125
vt 0.75 0.4140625
vt 0.7890625 0.4140625
vt 0.7890625 0.53125
vt 0.75 0.4921875
vt 0.7890625 0.4921875
vt 0 0.6875
vt 0.0546875 0.6875
vt 0.0546875 1
vt 0 1
vt 0.75 0.4140625
vt 0.7890625 0.375
vt 0.7890625 0.4140625
vn 0 -1 0
vn 0.7071067811865476 0 0.7071067811865476
vn 0 1 0
vn 0 -1 0
vn 0.7071067811865476 0 -0.7071067811865475
vn 0 1 0
vn 0 -1 0
vn -0.7071067811865475 0 -0.7071067811865477
vn 0 1 0
vn 0 -1 0
vn -0.7071067811865476 0 0.7071067811865475
vn 0 1 0
usemtl m_1
f 99/313/85 97/314/85 95/315/85
f 97/316/86 99/317/86 100/318/86 98/319/86
f 98/320/87 100/321/87 96/322/87
f 101/323/88 99/324/88 95/325/88
f 99/326/89 101/327/89 102/328/89 100/329/89
f 100/330/90 102/331/90 96/332/90
f 103/333/91 101/334/91 95/335/91
f 101/336/92 103/337/92 104/338/92 102/339/92
f 102/340/93 104/341/93 96/342/93
f 97/343/94 103/344/94 95/345/94
f 103/346/95 97/347/95 98/348/95 104/349/95
f 104/350/96 98/351/96 96/352/96